<svg xmlns="http://www.w3.org/2000/svg" xmlns:xlink="http://www.w3.org/1999/xlink" version="1.1" baseProfile="basic" x="0px" y="0px" viewBox="0 0 100 125" xml:space="preserve"><path d="M50,94C25.7,94,6,74.3,6,50S25.7,6,50,6s44,19.7,44,44S74.3,94,50,94z M50,10c-22.1,0-40,17.9-40,40  s17.9,40,40,40s40-17.9,40-40C90,27.9,72.1,10,50,10z M70,64H30v4h40V64z M44.5,34.3l-2.8-2.8L36,37.2l-5.7-5.7l-2.8,2.8l5.7,5.7  l-5.7,5.7l2.8,2.8l5.7-5.7l5.7,5.7l2.8-2.8L38.8,40L44.5,34.3z M72.5,34.3l-2.8-2.8L64,37.2l-5.7-5.7l-2.8,2.8l5.7,5.7l-5.7,5.7  l2.8,2.8l5.7-5.7l5.7,5.7l2.8-2.8L66.8,40L72.5,34.3z"/><text x="0" y="115" fill="#000000" font-size="5px" font-weight="bold" font-family="'Helvetica Neue', Helvetica, Arial-Unicode, Arial, Sans-serif">Created by Tobias F. Wolf</text><text x="0" y="120" fill="#000000" font-size="5px" font-weight="bold" font-family="'Helvetica Neue', Helvetica, Arial-Unicode, Arial, Sans-serif">from the Noun Project</text></svg>